<?xml version="1.0" encoding="UTF-8"?>
<svg version="1.1" viewBox="0 0 500 500" xmlns="http://www.w3.org/2000/svg">
 <defs>
  <linearGradient id="b" x1="363.04" x2="281.63" y1="396.08" y2="221.3" gradientUnits="userSpaceOnUse">
   <stop stop-color="#dcdcdc" offset="0"/>
   <stop stop-color="#fff" offset="1"/>
  </linearGradient>
  <radialGradient id="a" cx="232.21" cy="298.39" r="138.82" gradientTransform="matrix(2.3011 -.29221 .015604 1.5413 -306.8 -93.662)" gradientUnits="userSpaceOnUse">
   <stop stop-color="#e0e0e0" offset="0"/>
   <stop stop-color="#d2d2d2" offset="1"/>
  </radialGradient>
 </defs>
 <g transform="translate(79.171 -159.79)">
  <path d="m261.44 288.19c-5.5623 0.40566-11.757 1.73-16.688 6.4062s-7.013 12.493-5.4375 21c1.993 10.762 9.5608 17.187 15.719 21.906s11.076 8.3297 13.281 13.25a7.5008 7.5008 0 1 0 13.688 -6.125c-4.2862-9.5614-12.136-14.657-17.844-19.031s-9.1123-7.4189-10.094-12.719c-0.97641-5.2725-0.0517-6.4089 1-7.4062 1.0517-0.99737 3.7783-2.0746 7.4688-2.3438 7.3809-0.5383 16.594 1.8438 16.594 1.8438a7.5008 7.5008 0 1 0 4.0312 -14.438s-10.594-3.1551-21.719-2.3438z" color="#000000" fill="#dbdbdb" style="block-progression:tb;text-indent:0;text-transform:none"/>
  <path d="m383.5 278.19c-0.82091 0.0475-1.6355 0.0937-2.4688 0.0937h-106.88v71.906c0 23.239 18.699 41.938 41.938 41.938h25.469c23.239 0 41.938-18.699 41.938-41.938v-72z" color="#000000" fill="url(#b)"/>
 </g>
 <g transform="translate(-18.163 169.57)">
  <path transform="matrix(1.223 0 0 .30717 -69.114 85.635)" d="m390.51 278.28a138.82 138.82 0 0 1 -138.82 138.82 138.82 138.82 0 0 1 -138.82 -138.82 138.82 138.82 0 0 1 138.82 -138.82 138.82 138.82 0 0 1 138.82 138.82z" color="#000000" fill="#c9c9c9"/>
  <path transform="matrix(1.223 0 0 .30717 -69.114 83.635)" d="m390.51 278.28a138.82 138.82 0 0 1 -138.82 138.82 138.82 138.82 0 0 1 -138.82 -138.82 138.82 138.82 0 0 1 138.82 -138.82 138.82 138.82 0 0 1 138.82 138.82z" color="#000000" fill="#ebebeb"/>
  <path transform="matrix(.8705 0 0 .21863 19.608 108.27)" d="m390.51 278.28a138.82 138.82 0 0 1 -138.82 138.82 138.82 138.82 0 0 1 -138.82 -138.82 138.82 138.82 0 0 1 138.82 -138.82 138.82 138.82 0 0 1 138.82 138.82z" color="#000000" fill="url(#a)"/>
 </g>
 <g transform="translate(-18.163 154.28)">
  <path transform="matrix(1.223 0 0 .30717 -69.114 85.635)" d="m390.51 278.28a138.82 138.82 0 0 1 -138.82 138.82 138.82 138.82 0 0 1 -138.82 -138.82 138.82 138.82 0 0 1 138.82 -138.82 138.82 138.82 0 0 1 138.82 138.82z" color="#000000" fill="#c9c9c9"/>
  <path transform="matrix(1.223 0 0 .30717 -69.114 83.635)" d="m390.51 278.28a138.82 138.82 0 0 1 -138.82 138.82 138.82 138.82 0 0 1 -138.82 -138.82 138.82 138.82 0 0 1 138.82 -138.82 138.82 138.82 0 0 1 138.82 138.82z" color="#000000" fill="#ebebeb"/>
  <path transform="matrix(.8705 0 0 .21863 19.608 108.27)" d="m390.51 278.28a138.82 138.82 0 0 1 -138.82 138.82 138.82 138.82 0 0 1 -138.82 -138.82 138.82 138.82 0 0 1 138.82 -138.82 138.82 138.82 0 0 1 138.82 138.82z" color="#000000" fill="url(#a)"/>
 </g>
 <g transform="translate(-18.163 137.22)">
  <path transform="matrix(1.223 0 0 .30717 -69.114 85.635)" d="m390.51 278.28a138.82 138.82 0 0 1 -138.82 138.82 138.82 138.82 0 0 1 -138.82 -138.82 138.82 138.82 0 0 1 138.82 -138.82 138.82 138.82 0 0 1 138.82 138.82z" color="#000000" fill="#c9c9c9"/>
  <path transform="matrix(1.223 0 0 .30717 -69.114 83.635)" d="m390.51 278.28a138.82 138.82 0 0 1 -138.82 138.82 138.82 138.82 0 0 1 -138.82 -138.82 138.82 138.82 0 0 1 138.82 -138.82 138.82 138.82 0 0 1 138.82 138.82z" color="#000000" fill="#ebebeb"/>
  <path transform="matrix(.8705 0 0 .21863 19.608 108.27)" d="m390.51 278.28a138.82 138.82 0 0 1 -138.82 138.82 138.82 138.82 0 0 1 -138.82 -138.82 138.82 138.82 0 0 1 138.82 -138.82 138.82 138.82 0 0 1 138.82 138.82z" color="#000000" fill="url(#a)"/>
 </g>
 <g transform="translate(-18.163 122.93)">
  <path transform="matrix(1.223 0 0 .30717 -69.114 85.635)" d="m390.51 278.28a138.82 138.82 0 0 1 -138.82 138.82 138.82 138.82 0 0 1 -138.82 -138.82 138.82 138.82 0 0 1 138.82 -138.82 138.82 138.82 0 0 1 138.82 138.82z" color="#000000" fill="#c9c9c9"/>
  <path transform="matrix(1.223 0 0 .30717 -69.114 83.635)" d="m390.51 278.28a138.82 138.82 0 0 1 -138.82 138.82 138.82 138.82 0 0 1 -138.82 -138.82 138.82 138.82 0 0 1 138.82 -138.82 138.82 138.82 0 0 1 138.82 138.82z" color="#000000" fill="#ebebeb"/>
  <path transform="matrix(.8705 0 0 .21863 19.608 108.27)" d="m390.51 278.28a138.82 138.82 0 0 1 -138.82 138.82 138.82 138.82 0 0 1 -138.82 -138.82 138.82 138.82 0 0 1 138.82 -138.82 138.82 138.82 0 0 1 138.82 138.82z" color="#000000" fill="url(#a)"/>
 </g>
 <g transform="translate(-18.163 105.87)">
  <path transform="matrix(1.223 0 0 .30717 -69.114 85.635)" d="m390.51 278.28a138.82 138.82 0 0 1 -138.82 138.82 138.82 138.82 0 0 1 -138.82 -138.82 138.82 138.82 0 0 1 138.82 -138.82 138.82 138.82 0 0 1 138.82 138.82z" color="#000000" fill="#c9c9c9"/>
  <path transform="matrix(1.223 0 0 .30717 -69.114 83.635)" d="m390.51 278.28a138.82 138.82 0 0 1 -138.82 138.82 138.82 138.82 0 0 1 -138.82 -138.82 138.82 138.82 0 0 1 138.82 -138.82 138.82 138.82 0 0 1 138.82 138.82z" color="#000000" fill="#ebebeb"/>
  <path transform="matrix(.8705 0 0 .21863 19.608 108.27)" d="m390.51 278.28a138.82 138.82 0 0 1 -138.82 138.82 138.82 138.82 0 0 1 -138.82 -138.82 138.82 138.82 0 0 1 138.82 -138.82 138.82 138.82 0 0 1 138.82 138.82z" color="#000000" fill="url(#a)"/>
 </g>
 <rect width="500" height="500" fill-opacity="0"/>
</svg>
